# Blender v2.83.7 OBJ File: ''
# www.blender.org
mtllib arm_l_link01.mtl
o ソリッド1.001
v -0.026001 -0.003830 0.003214
v -0.024501 -0.003830 0.003214
v -0.026001 -0.005000 -0.000000
v -0.024501 -0.005000 -0.000000
v -0.026001 -0.003830 -0.003214
v -0.024501 -0.003830 -0.003214
v -0.026001 -0.000868 -0.004924
v -0.024501 -0.000868 -0.004924
v -0.026001 0.002500 -0.004330
v -0.024501 0.002500 -0.004330
v -0.026001 0.004698 -0.001710
v -0.024501 0.004698 -0.001710
v -0.026001 0.004698 0.001710
v -0.024501 0.004698 0.001710
v -0.026001 0.002500 0.004330
v -0.024501 0.002500 0.004330
v -0.026001 -0.000868 0.004924
v -0.024501 -0.000868 0.004924
v 0.024501 -0.003830 0.003214
v 0.026001 -0.003830 0.003214
v 0.024501 -0.005000 -0.000000
v 0.026001 -0.005000 -0.000000
v 0.024501 -0.003830 -0.003214
v 0.026001 -0.003830 -0.003214
v 0.024501 -0.000868 -0.004924
v 0.026001 -0.000868 -0.004924
v 0.024501 0.002500 -0.004330
v 0.026001 0.002500 -0.004330
v 0.024501 0.004698 -0.001710
v 0.026001 0.004698 -0.001710
v 0.024501 0.004698 0.001710
v 0.026001 0.004698 0.001710
v 0.024501 0.002500 0.004330
v 0.026001 0.002500 0.004330
v 0.024501 -0.000868 0.004924
v 0.026001 -0.000868 0.004924
v -0.026001 0.000000 -0.013000
v -0.026001 0.007641 -0.010517
v -0.024501 0.000000 -0.013000
v -0.024501 0.007641 -0.010517
v -0.026001 0.012364 -0.004017
v -0.024501 0.012364 -0.004017
v -0.026001 0.012364 0.004017
v -0.024501 0.012364 0.004017
v -0.026001 0.007641 0.010517
v -0.024501 0.007641 0.010517
v -0.024501 -0.000000 0.013000
v -0.026001 -0.000000 0.013000
v 0.024501 0.000000 -0.013000
v 0.024501 0.007641 -0.010517
v 0.026001 0.000000 -0.013000
v 0.026001 0.007641 -0.010517
v 0.024501 0.012364 -0.004017
v 0.026001 0.012364 -0.004017
v 0.024501 0.012364 0.004017
v 0.026001 0.012364 0.004017
v 0.024501 0.007641 0.010517
v 0.026001 0.007641 0.010517
v 0.026001 -0.000000 0.013000
v 0.024501 -0.000000 0.013000
v 0.026001 -0.021999 0.013000
v 0.024501 -0.021999 0.013000
v -0.026001 -0.021999 -0.013000
v -0.024501 -0.021999 -0.013000
v 0.026001 -0.021999 -0.013000
v -0.024501 -0.021999 0.013000
v 0.025800 -0.022749 -0.013000
v 0.025800 -0.022749 0.013000
v 0.025250 -0.023299 -0.013000
v 0.025250 -0.023299 0.013000
v 0.024500 -0.023500 0.013000
v 0.024500 -0.023500 -0.013000
v 0.024501 -0.021999 -0.013000
v 0.024501 -0.021999 0.013000
v 0.024500 -0.022000 0.013000
v 0.024500 -0.022000 0.013000
v 0.024501 -0.021999 -0.013000
v 0.024500 -0.022000 -0.013000
v 0.024500 -0.022000 -0.013000
v -0.026001 -0.021999 0.013000
v -0.025800 -0.022749 0.013000
v -0.025800 -0.022749 -0.013000
v -0.025250 -0.023299 0.013000
v -0.025250 -0.023299 -0.013000
v -0.024500 -0.023500 -0.013000
v -0.024500 -0.023500 0.013000
v -0.024501 -0.021999 -0.013000
v -0.024500 -0.022000 -0.013000
v -0.024500 -0.022000 -0.013000
v -0.024501 -0.021999 0.013000
v -0.024500 -0.022000 0.013000
v -0.024500 -0.022000 0.013000
v 0.003064 -0.022000 -0.002571
v 0.003064 -0.023500 -0.002571
v 0.004000 -0.022000 -0.000000
v 0.004000 -0.023500 -0.000000
v 0.003064 -0.022000 0.002571
v 0.003064 -0.023500 0.002571
v 0.000695 -0.022000 0.003939
v 0.000695 -0.023500 0.003939
v -0.002000 -0.022000 0.003464
v -0.002000 -0.023500 0.003464
v -0.003759 -0.022000 0.001368
v -0.003759 -0.023500 0.001368
v -0.003759 -0.022000 -0.001368
v -0.003759 -0.023500 -0.001368
v -0.002000 -0.022000 -0.003464
v -0.002000 -0.023500 -0.003464
v 0.000695 -0.022000 -0.003939
v 0.000695 -0.023500 -0.003939
v -0.019577 -0.022000 -0.013000
v -0.019577 -0.023500 -0.013000
v -0.007575 -0.022000 -0.022246
v -0.007575 -0.023500 -0.022246
v 0.007575 -0.022000 -0.022246
v 0.007575 -0.023500 -0.022246
v 0.019577 -0.022000 -0.013000
v 0.019577 -0.023500 -0.013000
v 0.019577 -0.022000 0.013000
v 0.019577 -0.023500 0.013000
v 0.007575 -0.022000 0.022246
v 0.007575 -0.023500 0.022246
v -0.007575 -0.022000 0.022246
v -0.007575 -0.023500 0.022246
v -0.019577 -0.022000 0.013000
v -0.019577 -0.023500 0.013000
vt 5.200200 -1.221730
vt 5.050200 -1.221730
vt 5.200200 -1.570796
vt 5.050200 -1.570796
vt 5.200200 1.570796
vt 5.050200 1.570796
vt 5.200200 1.221730
vt 5.050200 1.221730
vt 5.200200 0.872665
vt 5.050200 0.872665
vt 5.200200 0.523599
vt 5.050200 0.523599
vt 5.200200 0.174533
vt 5.050200 0.174533
vt 5.200200 -0.174533
vt 5.050200 -0.174533
vt 5.200200 -0.523599
vt 5.050200 -0.523599
vt 5.200200 -0.872665
vt 5.050200 -0.872665
vt 0.150000 -1.221730
vt 0.000000 -1.221730
vt 0.150000 -1.570796
vt -0.000000 -1.570796
vt 0.150000 1.570796
vt -0.000000 1.570796
vt 0.150000 1.221730
vt 0.000000 1.221730
vt 0.150000 0.872665
vt 0.000000 0.872665
vt 0.150000 0.523599
vt 0.000000 0.523599
vt 0.150000 0.174533
vt 0.000000 0.174533
vt 0.150000 -0.174533
vt 0.000000 -0.174533
vt 0.150000 -0.523599
vt 0.000000 -0.523599
vt 0.150000 -0.872665
vt 0.000000 -0.872665
vt -5.200200 0.000000
vt -5.200200 -0.816814
vt -5.050200 -0.000000
vt -5.050200 -0.816814
vt -5.200200 -1.633628
vt -5.050200 -1.633628
vt -5.200200 -2.450442
vt -5.050200 -2.450442
vt -5.200200 -3.267256
vt -5.050200 -3.267256
vt -5.050200 -4.084070
vt -5.200200 -4.084070
vt -0.150000 0.000000
vt -0.150000 -0.816814
vt -0.000000 -0.000000
vt 0.000000 -0.816814
vt -0.150000 -1.633628
vt -0.000000 -1.633628
vt -0.150000 -2.450442
vt -0.000000 -2.450442
vt -0.150000 -3.267256
vt 0.000000 -3.267256
vt 0.000000 -4.084070
vt -0.150000 -4.084070
vt 0.150000 2.199900
vt 0.000000 2.199900
vt 0.150000 0.000000
vt 0.000000 0.000000
vt -0.150000 -2.199900
vt 0.000000 -2.199900
vt -0.150000 -0.000000
vt 0.000000 0.000000
vt -0.118843 -0.321394
vt 1.698035 -1.300000
vt -0.001865 0.000000
vt 1.698035 1.300000
vt -0.118843 0.321394
vt -0.501865 1.300000
vt -0.415041 0.492404
vt -0.751865 0.433013
vt -1.265986 1.051722
vt -1.738238 0.401722
vt -0.501865 -1.300000
vt -0.415041 -0.492404
vt -0.751865 -0.433013
vt -0.971711 -0.171010
vt -1.738238 -0.401722
vt -1.265986 -1.051722
vt -0.971711 0.171010
vt -0.118843 -0.321394
vt 1.698035 -1.300000
vt -0.001865 -0.000000
vt 1.698035 1.300000
vt -0.118843 0.321394
vt -0.501865 1.300000
vt -0.415041 0.492404
vt -0.751865 0.433013
vt -1.265986 1.051722
vt -1.738238 0.401722
vt -0.501865 -1.300000
vt -0.415041 -0.492404
vt -0.751865 -0.433013
vt -0.971711 -0.171010
vt -1.738238 -0.401722
vt -1.265986 -1.051722
vt -0.971711 0.171010
vt 1.300000 0.235777
vt -1.300000 0.235777
vt 1.300000 0.157184
vt -1.300000 0.157184
vt 1.300000 0.078592
vt -1.300000 0.078592
vt -1.300000 0.000000
vt 1.300000 0.000000
vt -0.000000 2.199900
vt -0.150000 2.199900
vt 0.000000 0.000000
vt -0.150000 0.000000
vt 1.265986 -1.051722
vt 0.751865 -0.433013
vt 0.501865 -1.300000
vt 0.415041 -0.492404
vt 0.118843 -0.321394
vt 1.738238 -0.401722
vt 0.971711 -0.171010
vt 0.971711 0.171010
vt 1.738238 0.401722
vt 0.751865 0.433013
vt 1.265986 1.051722
vt 0.501865 1.300000
vt -1.698035 1.300000
vt 0.118843 0.321394
vt 0.415041 0.492404
vt 0.001865 0.000000
vt -1.698035 -1.300000
vt 0.000050 -0.000013
vt -0.000000 0.150000
vt 0.075050 0.129890
vt 0.000087 -0.000050
vt 0.129990 0.074950
vt 0.000100 -0.000100
vt 0.150100 -0.000100
vt -0.000000 0.000000
vt -0.075050 -0.020110
vt -0.000000 -0.150000
vt -0.000050 -0.150013
vt -0.129990 -0.075050
vt -0.000087 -0.150050
vt -0.150100 -0.150100
vt -0.000100 -0.150100
vt 1.300000 0.000157
vt -1.300000 0.000157
vt 1.300000 0.000105
vt -1.300000 0.000105
vt 1.300000 0.000052
vt -1.300000 0.000052
vt -1.300000 0.000000
vt 1.300000 0.000000
vt 1.300000 0.235777
vt -1.300000 0.235777
vt 1.300000 0.157184
vt -1.300000 0.157184
vt 1.300000 0.078592
vt -1.300000 0.078592
vt -1.300000 0.000000
vt 1.300000 0.000000
vt -0.000000 -2.199900
vt 0.150000 -2.199900
vt 0.000000 0.000000
vt 0.150000 -0.000000
vt 0.000000 -0.150000
vt -0.075050 -0.129890
vt -0.000050 0.000013
vt -0.129990 -0.074950
vt -0.000087 0.000050
vt -0.150100 0.000100
vt -0.000100 0.000100
vt 0.000000 0.150000
vt 0.000000 0.000000
vt 0.000050 0.150013
vt 0.075050 0.020110
vt 0.129990 0.075050
vt 0.150100 0.150100
vt 0.000100 0.150100
vt 0.000087 0.150050
vt 1.265986 -1.051722
vt 0.751865 -0.433013
vt 0.501865 -1.300000
vt 0.415041 -0.492404
vt 0.118843 -0.321394
vt 1.738238 -0.401722
vt 0.971711 -0.171010
vt 0.971711 0.171010
vt 1.738238 0.401722
vt 0.751865 0.433013
vt 1.265986 1.051722
vt 0.501865 1.300000
vt -1.698035 1.300000
vt 0.118843 0.321394
vt 0.415041 0.492404
vt 0.001865 0.000000
vt -1.698035 -1.300000
vt 1.300000 0.000157
vt -1.300000 0.000157
vt 1.300000 0.000105
vt -1.300000 0.000105
vt 1.300000 0.000052
vt -1.300000 0.000052
vt -1.300000 0.000000
vt 1.300000 0.000000
vt 0.150000 -0.977384
vt 0.000000 -0.977384
vt 0.150000 -1.256637
vt 0.000000 -1.256637
vt 0.150000 1.256637
vt 0.000000 1.256637
vt 0.150000 0.977384
vt 0.000000 0.977384
vt 0.150000 0.698132
vt 0.000000 0.698132
vt 0.150000 0.418879
vt 0.000000 0.418879
vt 0.150000 0.139626
vt 0.000000 0.139626
vt 0.150000 -0.139626
vt 0.000000 -0.139626
vt 0.150000 -0.418879
vt 0.000000 -0.418879
vt 0.150000 -0.698132
vt 0.000000 -0.698132
vt 0.150000 0.492323
vt 0.000000 0.492323
vt 0.150000 0.000000
vt 0.000000 0.000000
vt -0.150000 4.627648
vt -0.150000 3.085098
vt -0.000000 4.627648
vt -0.000000 3.085098
vt -0.150000 1.542549
vt -0.000000 1.542549
vt -0.150000 0.000000
vt -0.000000 0.000000
vt 0.150000 0.492323
vt 0.000000 0.492323
vt 0.150000 0.000000
vt -0.150000 -0.492323
vt 0.000000 -0.492323
vt -0.150000 0.000000
vt 0.000000 0.000000
vt -0.150000 4.627648
vt -0.150000 3.085098
vt -0.000000 4.627648
vt -0.000000 3.085098
vt -0.150000 1.542549
vt -0.000000 1.542549
vt -0.150000 0.000000
vt -0.000000 0.000000
vt -0.150000 -0.492323
vt 0.000000 -0.492323
vt -0.306418 0.257115
vt -1.957677 1.300000
vt -0.400000 0.000000
vt -1.957677 -1.300000
vt -0.306418 -0.257115
vt -0.757502 -2.224565
vt -0.069459 -0.393923
vt 0.757502 -2.224565
vt 0.200000 -0.346410
vt 1.957677 -1.300000
vt 0.375877 -0.136808
vt 1.957677 1.300000
vt 0.375877 0.136808
vt 0.200000 0.346410
vt 0.757502 2.224565
vt -0.069459 0.393923
vt -0.757502 2.224565
vt 2.450000 1.300000
vt 2.450000 -1.300000
vt -2.450000 1.300000
vt -2.450000 -1.300000
vt 0.306418 -0.257115
vt 1.957677 -1.300000
vt 0.400000 -0.000000
vt 1.957677 1.300000
vt 0.306418 0.257115
vt 0.757502 2.224565
vt 0.069459 0.393923
vt -0.757502 2.224565
vt -0.200000 0.346410
vt -1.957677 1.300000
vt -0.375877 0.136808
vt -0.375877 -0.136808
vt -1.957677 -1.300000
vt -0.200000 -0.346410
vt -0.757502 -2.224565
vt 0.069459 -0.393923
vt 0.757502 -2.224565
vt -2.450000 1.300000
vt -2.450000 -1.300000
vt 2.450000 -1.300000
vt 2.450000 1.300000
vn 0.0000 0.7660 -0.6428
vn 0.0000 1.0000 0.0000
vn 0.0000 0.7660 0.6428
vn 0.0000 0.1736 0.9848
vn 0.0000 -0.5001 0.8660
vn 0.0000 -0.9397 0.3420
vn 0.0000 -0.9397 -0.3420
vn 0.0000 -0.5001 -0.8660
vn 0.0000 0.1736 -0.9848
vn -0.0000 0.0000 -1.0000
vn 0.0000 0.5878 -0.8090
vn 0.0000 0.9510 -0.3090
vn 0.0000 0.9510 0.3090
vn 0.0000 0.5878 0.8090
vn -0.0001 -0.0000 1.0000
vn 0.0000 -0.0000 1.0000
vn 1.0000 -0.0000 0.0000
vn 0.4999 0.0000 0.5000
vn 0.8660 -0.5000 -0.0000
vn 0.5000 -0.8660 -0.0000
vn 0.0000 -1.0000 -0.0000
vn -1.0000 -0.0000 0.0000
vn -0.4998 0.0000 0.5000
vn 0.0000 -0.5000 -0.5001
vn -0.3418 0.3412 0.4831
vn -0.8660 0.5000 0.0000
vn -0.5000 0.8660 0.0000
vn -0.3417 0.3411 0.4828
vn 0.0000 0.5000 0.5000
vn -0.8660 -0.5000 -0.0000
vn -0.5000 -0.8660 -0.0000
vn 0.0019 0.0000 -1.0000
vn -0.0003 0.0000 1.0000
vn -0.0010 0.0000 1.0000
vn 0.3418 0.3412 0.4831
vn 0.8660 0.5000 -0.0000
vn 0.5000 0.8660 0.0000
vn 0.3417 0.3411 0.4828
vn -0.7660 -0.0000 0.6428
vn -0.7660 0.0000 -0.6428
vn -0.1737 0.0000 -0.9848
vn 0.4999 0.0000 -0.8661
vn 0.9397 0.0000 -0.3421
vn 0.9397 -0.0000 0.3421
vn 0.4999 -0.0000 0.8661
vn -0.1737 -0.0000 0.9848
vn -0.8330 -0.0000 -0.5532
vn -0.3223 0.0000 -0.9466
vn 0.3223 0.0000 -0.9466
vn 0.8330 -0.0000 -0.5532
vn 0.8331 -0.0000 0.5532
vn 0.3223 0.0000 0.9466
vn -0.3223 0.0000 0.9466
vn -0.8330 -0.0000 0.5532
usemtl 254,254,255.001
s 1
f 1/1/1 2/2/1 3/3/2
f 3/3/2 2/2/1 4/4/2
f 3/5/2 4/6/2 5/7/3
f 5/7/3 4/6/2 6/8/3
f 5/7/3 6/8/3 7/9/4
f 7/9/4 6/8/3 8/10/4
f 7/9/4 8/10/4 9/11/5
f 9/11/5 8/10/4 10/12/5
f 9/11/5 10/12/5 11/13/6
f 11/13/6 10/12/5 12/14/6
f 11/13/6 12/14/6 13/15/7
f 13/15/7 12/14/6 14/16/7
f 13/15/7 14/16/7 15/17/8
f 15/17/8 14/16/7 16/18/8
f 15/17/8 16/18/8 17/19/9
f 17/19/9 16/18/8 18/20/9
f 17/19/9 18/20/9 1/1/1
f 1/1/1 18/20/9 2/2/1
f 19/21/1 20/22/1 21/23/2
f 21/23/2 20/22/1 22/24/2
f 21/25/2 22/26/2 23/27/3
f 23/27/3 22/26/2 24/28/3
f 23/27/3 24/28/3 25/29/4
f 25/29/4 24/28/3 26/30/4
f 25/29/4 26/30/4 27/31/5
f 27/31/5 26/30/4 28/32/5
f 27/31/5 28/32/5 29/33/6
f 29/33/6 28/32/5 30/34/6
f 29/33/6 30/34/6 31/35/7
f 31/35/7 30/34/6 32/36/7
f 31/35/7 32/36/7 33/37/8
f 33/37/8 32/36/7 34/38/8
f 33/37/8 34/38/8 35/39/9
f 35/39/9 34/38/8 36/40/9
f 35/39/9 36/40/9 19/21/1
f 19/21/1 36/40/9 20/22/1
f 37/41/10 38/42/11 39/43/10
f 39/43/10 38/42/11 40/44/11
f 40/44/11 38/42/11 41/45/12
f 40/44/11 41/45/12 42/46/12
f 42/46/12 41/45/12 43/47/13
f 42/46/12 43/47/13 44/48/13
f 44/48/13 43/47/13 45/49/14
f 44/48/13 45/49/14 46/50/14
f 46/50/14 45/49/14 47/51/15
f 47/51/15 45/49/14 48/52/16
f 49/53/10 50/54/11 51/55/10
f 51/55/10 50/54/11 52/56/11
f 52/56/11 50/54/11 53/57/12
f 52/56/11 53/57/12 54/58/12
f 54/58/12 53/57/12 55/59/13
f 54/58/12 55/59/13 56/60/13
f 56/60/13 55/59/13 57/61/14
f 56/60/13 57/61/14 58/62/14
f 58/62/14 57/61/14 59/63/15
f 59/63/15 57/61/14 60/64/16
f 59/65/15 60/66/16 61/67/16
f 61/67/16 60/66/16 62/68/16
f 37/69/10 39/70/10 63/71/10
f 63/71/10 39/70/10 64/72/10
f 20/73/17 61/74/17 22/75/17
f 22/75/17 61/74/17 65/76/17
f 22/75/17 65/76/17 24/77/17
f 24/77/17 65/76/17 51/78/17
f 24/77/17 51/78/17 26/79/17
f 26/79/17 51/78/17 28/80/17
f 28/80/17 51/78/17 52/81/17
f 28/80/17 52/81/17 54/82/17
f 61/74/17 20/73/17 59/83/17
f 59/83/17 20/73/17 36/84/17
f 59/83/17 36/84/17 34/85/17
f 32/86/17 56/87/17 34/85/17
f 34/85/17 56/87/17 58/88/17
f 34/85/17 58/88/17 59/83/17
f 32/86/17 30/89/17 56/87/17
f 56/87/17 30/89/17 54/82/17
f 54/82/17 30/89/17 28/80/17
f 2/90/17 66/91/18 4/92/17
f 4/92/17 66/91/18 64/93/17
f 4/92/17 64/93/17 6/94/17
f 6/94/17 64/93/17 39/95/17
f 6/94/17 39/95/17 8/96/17
f 8/96/17 39/95/17 10/97/17
f 10/97/17 39/95/17 40/98/17
f 10/97/17 40/98/17 42/99/17
f 66/91/18 2/90/17 47/100/17
f 47/100/17 2/90/17 18/101/17
f 47/100/17 18/101/17 16/102/17
f 14/103/17 44/104/17 16/102/17
f 16/102/17 44/104/17 46/105/17
f 16/102/17 46/105/17 47/100/17
f 14/103/17 12/106/17 44/104/17
f 44/104/17 12/106/17 42/99/17
f 42/99/17 12/106/17 10/97/17
f 65/107/17 61/108/17 67/109/19
f 67/109/19 61/108/17 68/110/19
f 67/109/19 68/110/19 69/111/20
f 69/111/20 68/110/19 70/112/20
f 69/111/20 70/112/20 71/113/21
f 71/113/21 72/114/21 69/111/20
f 49/115/10 51/116/10 73/117/10
f 73/117/10 51/116/10 65/118/10
f 57/119/22 33/120/22 60/121/22
f 60/121/22 33/120/22 35/122/22
f 60/121/22 35/122/22 19/123/22
f 57/119/22 55/124/22 33/120/22
f 33/120/22 55/124/22 31/125/22
f 31/125/22 55/124/22 29/126/22
f 29/126/22 55/124/22 53/127/22
f 29/126/22 53/127/22 27/128/22
f 27/128/22 53/127/22 50/129/22
f 27/128/22 50/129/22 49/130/22
f 73/131/23 23/132/22 49/130/22
f 49/130/22 23/132/22 25/133/22
f 49/130/22 25/133/22 27/128/22
f 23/132/22 73/131/23 21/134/22
f 21/134/22 73/131/23 62/135/22
f 21/134/22 62/135/22 19/123/22
f 19/123/22 62/135/22 60/121/22
f 62/68/16 74/136/16 61/137/16
f 61/137/16 74/136/16 68/138/16
f 68/138/16 74/136/16 75/139/16
f 68/138/16 75/139/16 70/140/16
f 70/140/16 75/139/16 76/141/16
f 70/140/16 76/141/16 71/142/16
f 65/143/10 67/144/10 73/145/10
f 73/145/10 67/144/10 77/146/10
f 77/146/10 67/144/10 69/147/10
f 77/146/10 69/147/10 78/148/10
f 78/148/10 69/147/10 72/149/10
f 78/148/10 72/149/10 79/150/24
f 62/151/22 73/152/23 74/153/25
f 74/153/25 73/152/23 77/154/26
f 74/153/25 77/154/26 75/155/27
f 75/155/27 77/154/26 78/156/28
f 75/155/27 78/156/28 79/157/2
f 79/157/2 76/158/29 75/155/27
f 80/159/22 63/160/22 81/161/30
f 81/161/30 63/160/22 82/162/30
f 81/161/30 82/162/30 83/163/31
f 83/163/31 82/162/30 84/164/31
f 83/163/31 84/164/31 85/165/21
f 85/165/21 86/166/21 83/163/31
f 47/167/15 48/168/16 66/169/16
f 66/169/16 48/168/16 80/170/16
f 63/171/10 64/72/10 82/172/10
f 82/172/10 64/72/10 87/173/10
f 82/172/10 87/173/10 84/174/10
f 84/174/10 87/173/10 88/175/32
f 84/174/10 88/175/32 85/176/10
f 85/176/10 88/175/32 89/177/10
f 66/178/16 80/179/16 90/180/33
f 90/180/33 80/179/16 81/181/16
f 90/180/33 81/181/16 83/182/16
f 86/183/16 91/184/16 83/182/16
f 83/182/16 91/184/16 92/185/34
f 83/182/16 92/185/34 90/180/33
f 45/186/22 15/187/22 48/188/22
f 48/188/22 15/187/22 17/189/22
f 48/188/22 17/189/22 1/190/22
f 45/186/22 43/191/22 15/187/22
f 15/187/22 43/191/22 13/192/22
f 13/192/22 43/191/22 11/193/22
f 11/193/22 43/191/22 41/194/22
f 11/193/22 41/194/22 9/195/22
f 9/195/22 41/194/22 38/196/22
f 9/195/22 38/196/22 37/197/22
f 63/198/22 5/199/22 37/197/22
f 37/197/22 5/199/22 7/200/22
f 37/197/22 7/200/22 9/195/22
f 5/199/22 63/198/22 3/201/22
f 3/201/22 63/198/22 80/202/22
f 3/201/22 80/202/22 1/190/22
f 1/190/22 80/202/22 48/188/22
f 64/203/17 66/204/18 87/205/35
f 87/205/35 66/204/18 90/206/36
f 87/205/35 90/206/36 88/207/37
f 88/207/37 90/206/36 92/208/38
f 88/207/37 92/208/38 91/209/2
f 91/209/2 89/210/29 88/207/37
f 93/211/39 94/212/39 95/213/22
f 95/213/22 94/212/39 96/214/22
f 95/215/22 96/216/22 97/217/40
f 97/217/40 96/216/22 98/218/40
f 97/217/40 98/218/40 99/219/41
f 99/219/41 98/218/40 100/220/41
f 99/219/41 100/220/41 101/221/42
f 101/221/42 100/220/41 102/222/42
f 101/221/42 102/222/42 103/223/43
f 103/223/43 102/222/42 104/224/43
f 103/223/43 104/224/43 105/225/44
f 105/225/44 104/224/43 106/226/44
f 105/225/44 106/226/44 107/227/45
f 107/227/45 106/226/44 108/228/45
f 107/227/45 108/228/45 109/229/46
f 109/229/46 108/228/45 110/230/46
f 109/229/46 110/230/46 93/211/39
f 93/211/39 110/230/46 94/212/39
f 111/231/10 112/232/10 89/233/10
f 89/233/10 112/232/10 85/234/10
f 111/235/47 113/236/48 112/237/47
f 112/237/47 113/236/48 114/238/48
f 114/238/48 113/236/48 115/239/49
f 114/238/48 115/239/49 116/240/49
f 116/240/49 115/239/49 117/241/50
f 116/240/49 117/241/50 118/242/50
f 79/243/24 72/244/10 117/245/10
f 117/245/10 72/244/10 118/242/10
f 119/246/16 120/247/16 76/248/16
f 76/248/16 120/247/16 71/249/16
f 119/250/51 121/251/52 120/252/51
f 120/252/51 121/251/52 122/253/52
f 122/253/52 121/251/52 123/254/53
f 122/253/52 123/254/53 124/255/53
f 124/255/53 123/254/53 125/256/54
f 124/255/53 125/256/54 126/257/54
f 91/258/16 86/259/16 125/256/16
f 125/256/16 86/259/16 126/257/16
f 94/260/21 118/261/21 96/262/21
f 96/262/21 118/261/21 120/263/21
f 96/262/21 120/263/21 98/264/21
f 98/264/21 120/263/21 122/265/21
f 98/264/21 122/265/21 100/266/21
f 100/266/21 122/265/21 124/267/21
f 100/266/21 124/267/21 102/268/21
f 102/268/21 124/267/21 126/269/21
f 102/268/21 126/269/21 104/270/21
f 104/270/21 126/269/21 112/271/21
f 104/270/21 112/271/21 106/272/21
f 106/272/21 112/271/21 108/273/21
f 108/273/21 112/271/21 114/274/21
f 108/273/21 114/274/21 110/275/21
f 110/275/21 114/274/21 116/276/21
f 110/275/21 116/276/21 94/260/21
f 94/260/21 116/276/21 118/261/21
f 85/277/21 112/271/21 86/278/21
f 86/278/21 112/271/21 126/269/21
f 118/261/21 72/279/21 120/263/21
f 120/263/21 72/279/21 71/280/21
f 97/281/2 119/282/2 95/283/2
f 95/283/2 119/282/2 117/284/2
f 95/283/2 117/284/2 93/285/2
f 93/285/2 117/284/2 115/286/2
f 93/285/2 115/286/2 109/287/2
f 109/287/2 115/286/2 113/288/2
f 109/287/2 113/288/2 107/289/2
f 107/289/2 113/288/2 111/290/2
f 107/289/2 111/290/2 105/291/2
f 105/291/2 111/290/2 103/292/2
f 103/292/2 111/290/2 125/293/2
f 103/292/2 125/293/2 101/294/2
f 101/294/2 125/293/2 123/295/2
f 101/294/2 123/295/2 99/296/2
f 99/296/2 123/295/2 121/297/2
f 99/296/2 121/297/2 97/281/2
f 97/281/2 121/297/2 119/282/2
f 89/298/29 91/299/2 111/290/2
f 111/290/2 91/299/2 125/293/2
f 76/300/29 79/301/2 119/282/2
f 119/282/2 79/301/2 117/284/2
